<?xml version="1.0" encoding="UTF-8"?>
<svg width="16" height="16" version="1.1" xmlns="http://www.w3.org/2000/svg"><rect x="1" width="14" height="1" fill="#d6d4ce"/><rect y="1" width="1" height="11" fill="#d6d4ce"/><g><rect x="1" y="1" width="1" height="10" fill="#a1a1a0"/><rect x="2" y="1" width="12" height="1" fill="#a1a1a0"/><rect x="14" y="1" width="1" height="10" fill="#a6a5a4"/><rect x="15" y="1" width="1" height="11" fill="#d3d2ca"/></g><rect x="2" y="2" width="1" height="8" fill="#090909"/><rect x="3" y="2" width="1" height="4"/><rect x="5" y="2" width="8" height="2"/><rect x="13" y="2" width="1" height="9"/><rect x="5" y="3" width="1" height="1" fill="#00360B"/><g><rect x="4" y="4" width="3" height="2" fill="#00360b"/><rect x="7" y="4" width="6" height="2"/><rect x="3" y="6" width="5" height="1" fill="#00360b"/><rect x="8" y="6" width="5" height="2"/></g><rect x="3" y="7" width="2" height="3"/><rect x="6" y="7" width="2" height="1"/><rect x="6" y="8" width="1" height="2"/><rect x="7" y="8" width="1" height="1" fill="#f00"/><rect x="8" y="8" width="1" height="1"/><rect x="9" y="8" width="1" height="1" fill="#f00"/><rect x="10" y="8" width="2" height="1" fill="#030303"/><rect x="3" y="10" width="10" height="1" fill="#030303"/><rect x="12" y="8" width="1" height="2" fill="#090909"/><rect x="2" y="10" width="1" height="1"/><rect x="7" y="9" width="5" height="1"/><rect x="5" y="7" width="1" height="4" fill="#362200"/><rect x="1" y="11" width="14" height="1" fill="#a6a5a4"/><rect y="12" width="1" height="1" fill="#C7C7C1" opacity=".52549"/><rect x="1" y="12" width="14" height="1" fill="#d3d2ca"/><rect x="15" y="12" width="1" height="1" fill="#A1A1A0" opacity=".58431"/><rect x="4" y="13" width="1" height="1" fill="#DEDEDE" opacity=".21176"/><rect x="5" y="13" width="1" height="1" fill="#bbb" opacity=".5098"/><rect x="6" y="13" width="1" height="1" fill="#AEAEA9"/><rect x="7" y="13" width="1" height="1" fill="#9A9A97"/><rect x="8" y="13" width="1" height="1" fill="#8E8E8C"/><rect x="9" y="13" width="1" height="1" fill="#8B8B89"/><rect x="10" y="13" width="1" height="1" fill="#ACACA8" opacity=".61176"/><rect x="11" y="13" width="1" height="1" fill="#A1A1A0" opacity=".21176"/><rect x="3" y="14" width="1" height="1" fill="#D2D2D2" opacity=".5098"/><rect x="4" y="14" width="1" height="1" fill="#D8D8D8"/><rect x="5" y="14" width="1" height="1" fill="#D5D4CD"/><rect x="6" y="14" width="1" height="1" fill="#CAC9C4"/><rect x="7" y="14" width="1" height="1" fill="#B9B8B5"/><rect x="8" y="14" width="1" height="1" fill="#A6A6A4"/><rect x="9" y="14" width="1" height="1" fill="#A4A4A1"/><rect x="10" y="14" width="1" height="1" fill="#ADADA9"/><rect x="11" y="14" width="1" height="1" fill="#A1A1A0"/><rect x="12" y="14" width="1" height="1" fill="#A1A1A0" opacity=".38039"/><rect x="3" y="15" width="1" height="1" fill="#BFBFB9"/><rect x="4" y="15" width="1" height="1" fill="#BFBFB9"/><rect x="5" y="15" width="1" height="1" fill="#B7B7B2"/><rect x="6" y="15" width="1" height="1" fill="#ABAAA7"/><rect x="7" y="15" width="1" height="1" fill="#9F9F9E"/><rect x="8" y="15" width="1" height="1" fill="#9E9E9B"/><rect x="9" y="15" width="2" height="1" fill="#9d9d9a"/><rect x="11" y="15" width="1" height="1" fill="#A1A19E"/><rect x="12" y="15" width="1" height="1" fill="#A1A1A0"/><rect x="4" y="2" width="1" height="2"/></svg>
