<?xml version="1.0" encoding="UTF-8" ?>
<svg version="1.1" width="16" height="16" xmlns="http://www.w3.org/2000/svg">
<rect x="1" y="0" width="1" height="1" fill="#D6D4CE" />
<rect x="2" y="0" width="1" height="1" fill="#D6D4CE" />
<rect x="3" y="0" width="1" height="1" fill="#D6D4CE" />
<rect x="4" y="0" width="1" height="1" fill="#D6D4CD" />
<rect x="5" y="0" width="1" height="1" fill="#D5D3CD" />
<rect x="6" y="0" width="1" height="1" fill="#D5D3CD" />
<rect x="7" y="0" width="1" height="1" fill="#D5D3CC" />
<rect x="8" y="0" width="1" height="1" fill="#D4D2CB" />
<rect x="9" y="0" width="1" height="1" fill="#D4D2CA" />
<rect x="10" y="0" width="1" height="1" fill="#D3D2CA" />
<rect x="11" y="0" width="1" height="1" fill="#D3D1C9" />
<rect x="12" y="0" width="1" height="1" fill="#D2D1C8" />
<rect x="13" y="0" width="1" height="1" fill="#D1D0C7" />
<rect x="14" y="0" width="1" height="1" fill="#D1CFC6" />
<rect x="0" y="1" width="1" height="1" fill="#D6D4CE" />
<rect x="1" y="1" width="1" height="1" fill="#A1A1A0" />
<rect x="2" y="1" width="1" height="1" fill="#A1A1A0" />
<rect x="3" y="1" width="1" height="1" fill="#A1A1A0" />
<rect x="4" y="1" width="1" height="1" fill="#A3A2A1" />
<rect x="5" y="1" width="1" height="1" fill="#A5A5A3" />
<rect x="6" y="1" width="1" height="1" fill="#A7A7A5" />
<rect x="7" y="1" width="1" height="1" fill="#A9A9A7" />
<rect x="8" y="1" width="1" height="1" fill="#ACACA9" />
<rect x="9" y="1" width="1" height="1" fill="#AFAFAC" />
<rect x="10" y="1" width="1" height="1" fill="#B1B1AF" />
<rect x="11" y="1" width="1" height="1" fill="#B5B4B1" />
<rect x="12" y="1" width="1" height="1" fill="#B8B8B4" />
<rect x="13" y="1" width="1" height="1" fill="#BCBBB6" />
<rect x="14" y="1" width="1" height="1" fill="#A6A5A4" />
<rect x="15" y="1" width="1" height="1" fill="#D3D2CA" />
<rect x="0" y="2" width="1" height="1" fill="#D6D4CE" />
<rect x="1" y="2" width="1" height="1" fill="#A1A1A0" />
<rect x="2" y="2" width="1" height="1" fill="#090909" />
<rect x="3" y="2" width="1" height="1" fill="#000000" />
<rect x="4" y="2" width="1" height="1" fill="#000000" />
<rect x="5" y="2" width="1" height="1" fill="#000000" />
<rect x="6" y="2" width="1" height="1" fill="#000000" />
<rect x="7" y="2" width="1" height="1" fill="#000000" />
<rect x="8" y="2" width="1" height="1" fill="#000000" />
<rect x="9" y="2" width="1" height="1" fill="#000000" />
<rect x="10" y="2" width="1" height="1" fill="#000000" />
<rect x="11" y="2" width="1" height="1" fill="#000000" />
<rect x="12" y="2" width="1" height="1" fill="#000000" />
<rect x="13" y="2" width="1" height="1" fill="#000000" />
<rect x="14" y="2" width="1" height="1" fill="#A6A5A4" />
<rect x="15" y="2" width="1" height="1" fill="#D3D2CA" />
<rect x="0" y="3" width="1" height="1" fill="#D6D4CE" />
<rect x="1" y="3" width="1" height="1" fill="#A1A1A0" />
<rect x="2" y="3" width="1" height="1" fill="#090909" />
<rect x="3" y="3" width="1" height="1" fill="#000000" />
<rect x="4" y="3" width="1" height="1" fill="#000000" />
<rect x="5" y="3" width="1" height="1" fill="#00360B" />
<rect x="6" y="3" width="1" height="1" fill="#000000" />
<rect x="7" y="3" width="1" height="1" fill="#000000" />
<rect x="8" y="3" width="1" height="1" fill="#000000" />
<rect x="9" y="3" width="1" height="1" fill="#000000" />
<rect x="10" y="3" width="1" height="1" fill="#000000" />
<rect x="11" y="3" width="1" height="1" fill="#000000" />
<rect x="12" y="3" width="1" height="1" fill="#000000" />
<rect x="13" y="3" width="1" height="1" fill="#000000" />
<rect x="14" y="3" width="1" height="1" fill="#A6A5A4" />
<rect x="15" y="3" width="1" height="1" fill="#D3D2CA" />
<rect x="0" y="4" width="1" height="1" fill="#D6D4CD" />
<rect x="1" y="4" width="1" height="1" fill="#A6A5A4" />
<rect x="2" y="4" width="1" height="1" fill="#090909" />
<rect x="3" y="4" width="1" height="1" fill="#000000" />
<rect x="4" y="4" width="1" height="1" fill="#00360B" />
<rect x="5" y="4" width="1" height="1" fill="#00360B" />
<rect x="6" y="4" width="1" height="1" fill="#00360B" />
<rect x="7" y="4" width="1" height="1" fill="#000000" />
<rect x="8" y="4" width="1" height="1" fill="#000000" />
<rect x="9" y="4" width="1" height="1" fill="#000000" />
<rect x="10" y="4" width="1" height="1" fill="#000000" />
<rect x="11" y="4" width="1" height="1" fill="#000000" />
<rect x="12" y="4" width="1" height="1" fill="#000000" />
<rect x="13" y="4" width="1" height="1" fill="#000000" />
<rect x="14" y="4" width="1" height="1" fill="#A6A5A4" />
<rect x="15" y="4" width="1" height="1" fill="#D3D2CA" />
<rect x="0" y="5" width="1" height="1" fill="#D5D4CE" />
<rect x="1" y="5" width="1" height="1" fill="#A4A4A2" />
<rect x="2" y="5" width="1" height="1" fill="#090909" />
<rect x="3" y="5" width="1" height="1" fill="#000000" />
<rect x="4" y="5" width="1" height="1" fill="#00360B" />
<rect x="5" y="5" width="1" height="1" fill="#00360B" />
<rect x="6" y="5" width="1" height="1" fill="#00360B" />
<rect x="7" y="5" width="1" height="1" fill="#000000" />
<rect x="8" y="5" width="1" height="1" fill="#000000" />
<rect x="9" y="5" width="1" height="1" fill="#000000" />
<rect x="10" y="5" width="1" height="1" fill="#030303" />
<rect x="11" y="5" width="1" height="1" fill="#030303" />
<rect x="12" y="5" width="1" height="1" fill="#030303" />
<rect x="13" y="5" width="1" height="1" fill="#000000" />
<rect x="14" y="5" width="1" height="1" fill="#A6A5A4" />
<rect x="15" y="5" width="1" height="1" fill="#D3D2CA" />
<rect x="0" y="6" width="1" height="1" fill="#D6D3CD" />
<rect x="1" y="6" width="1" height="1" fill="#A6A5A4" />
<rect x="2" y="6" width="1" height="1" fill="#090909" />
<rect x="3" y="6" width="1" height="1" fill="#00360B" />
<rect x="4" y="6" width="1" height="1" fill="#00360B" />
<rect x="5" y="6" width="1" height="1" fill="#00360B" />
<rect x="6" y="6" width="1" height="1" fill="#00360B" />
<rect x="7" y="6" width="1" height="1" fill="#00360B" />
<rect x="8" y="6" width="1" height="1" fill="#000000" />
<rect x="9" y="6" width="1" height="1" fill="#030303" />
<rect x="10" y="6" width="1" height="1" fill="#030303" />
<rect x="11" y="6" width="1" height="1" fill="#030303" />
<rect x="12" y="6" width="1" height="1" fill="#030303" />
<rect x="13" y="6" width="1" height="1" fill="#000000" />
<rect x="14" y="6" width="1" height="1" fill="#A6A5A4" />
<rect x="15" y="6" width="1" height="1" fill="#D3D2CA" />
<rect x="0" y="7" width="1" height="1" fill="#D5D3CC" />
<rect x="1" y="7" width="1" height="1" fill="#A8A8A6" />
<rect x="2" y="7" width="1" height="1" fill="#090909" />
<rect x="3" y="7" width="1" height="1" fill="#000000" />
<rect x="4" y="7" width="1" height="1" fill="#000000" />
<rect x="5" y="7" width="1" height="1" fill="#362200" />
<rect x="6" y="7" width="1" height="1" fill="#000000" />
<rect x="7" y="7" width="1" height="1" fill="#000000" />
<rect x="8" y="7" width="1" height="1" fill="#000000" />
<rect x="9" y="7" width="1" height="1" fill="#030303" />
<rect x="10" y="7" width="1" height="1" fill="#030303" />
<rect x="11" y="7" width="1" height="1" fill="#030303" />
<rect x="12" y="7" width="1" height="1" fill="#030303" />
<rect x="13" y="7" width="1" height="1" fill="#000000" />
<rect x="14" y="7" width="1" height="1" fill="#A6A5A4" />
<rect x="15" y="7" width="1" height="1" fill="#D3D2CA" />
<rect x="0" y="8" width="1" height="1" fill="#D5D3CC" />
<rect x="1" y="8" width="1" height="1" fill="#AAAAA8" />
<rect x="2" y="8" width="1" height="1" fill="#090909" />
<rect x="3" y="8" width="1" height="1" fill="#000000" />
<rect x="4" y="8" width="1" height="1" fill="#000000" />
<rect x="5" y="8" width="1" height="1" fill="#362200" />
<rect x="6" y="8" width="1" height="1" fill="#000000" />
<rect x="7" y="8" width="1" height="1" fill="#FF0000" />
<rect x="8" y="8" width="1" height="1" fill="#000000" />
<rect x="9" y="8" width="1" height="1" fill="#FF0000" />
<rect x="10" y="8" width="1" height="1" fill="#030303" />
<rect x="11" y="8" width="1" height="1" fill="#030303" />
<rect x="12" y="8" width="1" height="1" fill="#090909" />
<rect x="13" y="8" width="1" height="1" fill="#000000" />
<rect x="14" y="8" width="1" height="1" fill="#A6A5A4" />
<rect x="15" y="8" width="1" height="1" fill="#D3D2CA" />
<rect x="0" y="9" width="1" height="1" fill="#D5D3CC" />
<rect x="1" y="9" width="1" height="1" fill="#ADACAA" />
<rect x="2" y="9" width="1" height="1" fill="#090909" />
<rect x="3" y="9" width="1" height="1" fill="#000000" />
<rect x="4" y="9" width="1" height="1" fill="#000000" />
<rect x="5" y="9" width="1" height="1" fill="#362200" />
<rect x="6" y="9" width="1" height="1" fill="#030303" />
<rect x="7" y="9" width="1" height="1" fill="#030303" />
<rect x="8" y="9" width="1" height="1" fill="#030303" />
<rect x="9" y="9" width="1" height="1" fill="#030303" />
<rect x="10" y="9" width="1" height="1" fill="#030303" />
<rect x="11" y="9" width="1" height="1" fill="#030303" />
<rect x="12" y="9" width="1" height="1" fill="#090909" />
<rect x="13" y="9" width="1" height="1" fill="#000000" />
<rect x="14" y="9" width="1" height="1" fill="#A6A5A4" />
<rect x="15" y="9" width="1" height="1" fill="#D3D2CA" />
<rect x="0" y="10" width="1" height="1" fill="#D4D2CA" />
<rect x="1" y="10" width="1" height="1" fill="#AFAFAC" />
<rect x="2" y="10" width="1" height="1" fill="#000000" />
<rect x="3" y="10" width="1" height="1" fill="#000000" />
<rect x="4" y="10" width="1" height="1" fill="#000000" />
<rect x="5" y="10" width="1" height="1" fill="#362200" />
<rect x="6" y="10" width="1" height="1" fill="#000000" />
<rect x="7" y="10" width="1" height="1" fill="#000000" />
<rect x="8" y="10" width="1" height="1" fill="#000000" />
<rect x="9" y="10" width="1" height="1" fill="#000000" />
<rect x="10" y="10" width="1" height="1" fill="#000000" />
<rect x="11" y="10" width="1" height="1" fill="#000000" />
<rect x="12" y="10" width="1" height="1" fill="#000000" />
<rect x="13" y="10" width="1" height="1" fill="#000000" />
<rect x="14" y="10" width="1" height="1" fill="#A6A5A4" />
<rect x="15" y="10" width="1" height="1" fill="#D3D2CA" />
<rect x="0" y="11" width="1" height="1" fill="#D3D2CA" />
<rect x="1" y="11" width="1" height="1" fill="#A6A5A4" />
<rect x="2" y="11" width="1" height="1" fill="#A6A5A4" />
<rect x="3" y="11" width="1" height="1" fill="#A6A5A4" />
<rect x="4" y="11" width="1" height="1" fill="#A6A5A4" />
<rect x="5" y="11" width="1" height="1" fill="#A6A5A4" />
<rect x="6" y="11" width="1" height="1" fill="#A6A5A4" />
<rect x="7" y="11" width="1" height="1" fill="#A6A5A4" />
<rect x="8" y="11" width="1" height="1" fill="#A6A5A4" />
<rect x="9" y="11" width="1" height="1" fill="#A6A5A4" />
<rect x="10" y="11" width="1" height="1" fill="#A6A5A4" />
<rect x="11" y="11" width="1" height="1" fill="#A6A5A4" />
<rect x="12" y="11" width="1" height="1" fill="#A6A5A4" />
<rect x="13" y="11" width="1" height="1" fill="#A6A5A4" />
<rect x="14" y="11" width="1" height="1" fill="#A6A5A4" />
<rect x="15" y="11" width="1" height="1" fill="#D3D2CA" />
<rect x="0" y="12" width="1" height="1" fill="#C7C7C1" opacity="0.525490" />
<rect x="1" y="12" width="1" height="1" fill="#D3D2CA" />
<rect x="2" y="12" width="1" height="1" fill="#D3D2CA" />
<rect x="3" y="12" width="1" height="1" fill="#D3D2CA" />
<rect x="4" y="12" width="1" height="1" fill="#D3D2CA" />
<rect x="5" y="12" width="1" height="1" fill="#D3D2CA" />
<rect x="6" y="12" width="1" height="1" fill="#D3D2CA" />
<rect x="7" y="12" width="1" height="1" fill="#D3D2CA" />
<rect x="8" y="12" width="1" height="1" fill="#D3D2CA" />
<rect x="9" y="12" width="1" height="1" fill="#D3D2CA" />
<rect x="10" y="12" width="1" height="1" fill="#D3D2CA" />
<rect x="11" y="12" width="1" height="1" fill="#D3D2CA" />
<rect x="12" y="12" width="1" height="1" fill="#D3D2CA" />
<rect x="13" y="12" width="1" height="1" fill="#D3D2CA" />
<rect x="14" y="12" width="1" height="1" fill="#D3D2CA" />
<rect x="15" y="12" width="1" height="1" fill="#A1A1A0" opacity="0.584314" />
<rect x="4" y="13" width="1" height="1" fill="#DEDEDE" opacity="0.211765" />
<rect x="5" y="13" width="1" height="1" fill="#BBBBBB" opacity="0.509804" />
<rect x="6" y="13" width="1" height="1" fill="#AEAEA9" />
<rect x="7" y="13" width="1" height="1" fill="#9A9A97" />
<rect x="8" y="13" width="1" height="1" fill="#8E8E8C" />
<rect x="9" y="13" width="1" height="1" fill="#8B8B89" />
<rect x="10" y="13" width="1" height="1" fill="#ACACA8" opacity="0.611765" />
<rect x="11" y="13" width="1" height="1" fill="#A1A1A0" opacity="0.211765" />
<rect x="3" y="14" width="1" height="1" fill="#D2D2D2" opacity="0.509804" />
<rect x="4" y="14" width="1" height="1" fill="#D8D8D8" />
<rect x="5" y="14" width="1" height="1" fill="#D5D4CD" />
<rect x="6" y="14" width="1" height="1" fill="#CAC9C4" />
<rect x="7" y="14" width="1" height="1" fill="#B9B8B5" />
<rect x="8" y="14" width="1" height="1" fill="#A6A6A4" />
<rect x="9" y="14" width="1" height="1" fill="#A4A4A1" />
<rect x="10" y="14" width="1" height="1" fill="#ADADA9" />
<rect x="11" y="14" width="1" height="1" fill="#A1A1A0" />
<rect x="12" y="14" width="1" height="1" fill="#A1A1A0" opacity="0.380392" />
<rect x="3" y="15" width="1" height="1" fill="#BFBFB9" />
<rect x="4" y="15" width="1" height="1" fill="#BFBFB9" />
<rect x="5" y="15" width="1" height="1" fill="#B7B7B2" />
<rect x="6" y="15" width="1" height="1" fill="#ABAAA7" />
<rect x="7" y="15" width="1" height="1" fill="#9F9F9E" />
<rect x="8" y="15" width="1" height="1" fill="#9E9E9B" />
<rect x="9" y="15" width="1" height="1" fill="#9D9D9A" />
<rect x="10" y="15" width="1" height="1" fill="#9D9D9A" />
<rect x="11" y="15" width="1" height="1" fill="#A1A19E" />
<rect x="12" y="15" width="1" height="1" fill="#A1A1A0" />
</svg>