<?xml version="1.0" encoding="UTF-8"?>
<svg width="16" height="16" version="1.1" xmlns="http://www.w3.org/2000/svg"><g fill="#a52613"><rect x="4" width="1" height="1" opacity=".25098"/><rect x="5" width="1" height="1" opacity=".62353"/><rect x="6" width="1" height="1" opacity=".87451"/><rect x="7" width="1" height="1"/><rect x="8" width="1" height="1"/><rect x="9" width="1" height="1" opacity=".87451"/><rect x="10" width="1" height="1" opacity=".62353"/><rect x="11" width="1" height="1" opacity=".25098"/><rect x="2" y="1" width="1" height="1" opacity=".062745"/><rect x="3" y="1" width="1" height="1" opacity=".68628"/></g><rect x="4" y="1" width="1" height="1" fill="#AA2713"/><rect x="5" y="1" width="1" height="1" fill="#CB3015"/><rect x="6" y="1" width="1" height="1" fill="#E23616"/><rect x="9" y="1" width="1" height="1" fill="#E23616"/><rect x="10" y="1" width="1" height="1" fill="#CB3015"/><rect x="11" y="1" width="1" height="1" fill="#AA2713"/><g fill="#a52613"><rect x="12" y="1" width="1" height="1" opacity=".68628"/><rect x="13" y="1" width="1" height="1" opacity=".062745"/><rect x="1" y="2" width="1" height="1" opacity=".062745"/><rect x="2" y="2" width="1" height="1" opacity=".81176"/></g><rect x="3" y="2" width="1" height="1" fill="#BC2C14"/><rect x="4" y="2" width="1" height="1" fill="#EB3917"/><rect x="11" y="2" width="1" height="1" fill="#EB3917"/><rect x="12" y="2" width="1" height="1" fill="#BC2C14"/><g fill="#a52613"><rect x="13" y="2" width="1" height="1" opacity=".81176"/><rect x="14" y="2" width="1" height="1" opacity=".062745"/><rect x="1" y="3" width="1" height="1" opacity=".68628"/></g><rect x="2" y="3" width="1" height="1" fill="#BC2C14"/><path d="m7 1v1h-1-1v2h1v1h1v1h2v-1h1v-1h1v-2h-1-1v-1h-2zm-4 2v1h1v-1h-1zm9 0v1h1v-1h-1zm-10 2v1 1h-1v2h1v1 1h1 1v-1h1v-1h1v-2h-1v-1h-1v-1h-1-1zm10 0v1h-1v1h-1v2h1v1h1v1h1 1v-1-1h1v-2h-1v-1-1h-1-1zm-5 5v1h-1v1h-1v2h1 1v1h2v-1h1 1v-2h-1v-1h-1v-1h-2zm-4 2v1h1v-1h-1zm9 0v1h1v-1h-1z" fill="#f03a17"/><rect x="4" y="3" width="1" height="1" fill="#F35F43"/><rect x="11" y="3" width="1" height="1" fill="#F35F43"/><rect x="13" y="3" width="1" height="1" fill="#BC2C14"/><rect x="14" y="3" width="1" height="1" fill="#A52613" opacity=".68628"/><rect y="4" width="1" height="1" fill="#A52613" opacity=".25098"/><rect x="1" y="4" width="1" height="1" fill="#AA2713"/><rect x="2" y="4" width="1" height="1" fill="#EB3917"/><rect x="3" y="4" width="1" height="1" fill="#F35F43"/><path d="m4 4v1h1v-1h-1zm1 1v1h1v-1h-1zm1 1v1h1v-1h-1zm1 1v2h2v-2h-2zm2 0h1v-1h-1v1zm1-1h1v-1h-1v1zm1-1h1v-1h-1v1zm-2 4v1h1v-1h-1zm1 1v1h1v-1h-1zm1 1v1h1v-1h-1zm-4-2h-1v1h1v-1zm-1 1h-1v1h1v-1zm-1 1h-1v1h1v-1z" fill="#fff"/><path d="m5 4v1h1v-1h-1zm1 1v1h1v-1h-1zm1 1v1h2v-1h-2zm2 0h1v-1h-1v1zm1-1h1v-1h-1v1zm1 0v1h1v-1h-1zm0 1h-1v1h1v-1zm-1 1h-1v2h1v-2zm0 2v1h1v-1h-1zm1 1v1h1v-1h-1zm0 1h-1v1h1v-1zm-1 0v-1h-1v1h1zm-1-1v-1h-2v1h2zm-2 0h-1v1h1v-1zm-1 1h-1v1h1v-1zm-1 0v-1h-1v1h1zm0-1h1v-1h-1v1zm1-1h1v-2h-1v2zm0-2v-1h-1v1h1zm-1-1v-1h-1v1h1z" fill="#f9b5a8"/><rect x="12" y="4" width="1" height="1" fill="#F35F43"/><rect x="13" y="4" width="1" height="1" fill="#EB3917"/><rect x="14" y="4" width="1" height="1" fill="#AA2713"/><rect x="15" y="4" width="1" height="1" fill="#A52613" opacity=".25098"/><rect y="5" width="1" height="1" fill="#A52613" opacity=".62353"/><rect x="1" y="5" width="1" height="1" fill="#CB3015"/><rect x="14" y="5" width="1" height="1" fill="#CB3015"/><rect x="15" y="5" width="1" height="1" fill="#A52613" opacity=".62353"/><rect y="6" width="1" height="1" fill="#A52613" opacity=".87451"/><rect x="1" y="6" width="1" height="1" fill="#E23616"/><rect x="14" y="6" width="1" height="1" fill="#E23616"/><g fill="#A52613"><rect x="15" y="6" width="1" height="1" opacity=".87451"/><rect y="7" width="1" height="1"/><rect x="15" y="7" width="1" height="1"/><rect y="8" width="1" height="1"/><rect x="15" y="8" width="1" height="1"/><rect y="9" width="1" height="1" opacity=".87451"/></g><rect x="1" y="9" width="1" height="1" fill="#E23616"/><rect x="14" y="9" width="1" height="1" fill="#E23616"/><rect x="15" y="9" width="1" height="1" fill="#A52613" opacity=".87451"/><rect y="10" width="1" height="1" fill="#A52613" opacity=".62353"/><rect x="1" y="10" width="1" height="1" fill="#CB3015"/><rect x="14" y="10" width="1" height="1" fill="#CB3015"/><rect x="15" y="10" width="1" height="1" fill="#A52613" opacity=".62353"/><rect y="11" width="1" height="1" fill="#A52613" opacity=".25098"/><rect x="1" y="11" width="1" height="1" fill="#AA2713"/><rect x="2" y="11" width="1" height="1" fill="#EB3917"/><rect x="3" y="11" width="1" height="1" fill="#F35F43"/><rect x="12" y="11" width="1" height="1" fill="#F35F43"/><rect x="13" y="11" width="1" height="1" fill="#EB3917"/><rect x="14" y="11" width="1" height="1" fill="#AA2713"/><rect x="15" y="11" width="1" height="1" fill="#A52613" opacity=".25098"/><rect x="1" y="12" width="1" height="1" fill="#A52613" opacity=".68628"/><rect x="2" y="12" width="1" height="1" fill="#BC2C14"/><rect x="4" y="12" width="1" height="1" fill="#F35F43"/><rect x="11" y="12" width="1" height="1" fill="#F35F43"/><rect x="13" y="12" width="1" height="1" fill="#BC2C14"/><g fill="#a52613"><rect x="14" y="12" width="1" height="1" opacity=".68628"/><rect x="1" y="13" width="1" height="1" opacity=".062745"/><rect x="2" y="13" width="1" height="1" opacity=".81176"/></g><rect x="3" y="13" width="1" height="1" fill="#BC2C14"/><rect x="4" y="13" width="1" height="1" fill="#EB3917"/><rect x="11" y="13" width="1" height="1" fill="#EB3917"/><rect x="12" y="13" width="1" height="1" fill="#BC2C14"/><g fill="#a52613"><rect x="13" y="13" width="1" height="1" opacity=".81176"/><rect x="14" y="13" width="1" height="1" opacity=".062745"/><rect x="2" y="14" width="1" height="1" opacity=".062745"/><rect x="3" y="14" width="1" height="1" opacity=".68628"/></g><rect x="4" y="14" width="1" height="1" fill="#AA2713"/><rect x="5" y="14" width="1" height="1" fill="#CB3015"/><rect x="6" y="14" width="1" height="1" fill="#E23616"/><rect x="9" y="14" width="1" height="1" fill="#E23616"/><rect x="10" y="14" width="1" height="1" fill="#CB3015"/><rect x="11" y="14" width="1" height="1" fill="#AA2713"/><g fill="#a52613"><rect x="12" y="14" width="1" height="1" opacity=".68628"/><rect x="13" y="14" width="1" height="1" opacity=".062745"/><rect x="4" y="15" width="1" height="1" opacity=".25098"/><rect x="5" y="15" width="1" height="1" opacity=".62353"/><rect x="6" y="15" width="1" height="1" opacity=".87451"/><rect x="7" y="15" width="1" height="1"/><rect x="8" y="15" width="1" height="1"/><rect x="9" y="15" width="1" height="1" opacity=".87451"/><rect x="10" y="15" width="1" height="1" opacity=".62353"/><rect x="11" y="15" width="1" height="1" opacity=".25098"/></g></svg>
