<?xml version="1.0" encoding="UTF-8"?>
<svg width="16" height="16" version="1.1" xmlns="http://www.w3.org/2000/svg"><g fill="#808080"><rect x="4" width="1" height="1"/><rect x="5" width="1" height="1"/><rect x="6" width="1" height="1"/><rect x="2" y="1" width="1" height="1"/><rect x="3" y="1" width="1" height="1"/></g><rect x="4" y="1" width="1" height="1" fill="#C0C0C0"/><rect x="5" y="1" width="1" height="1" fill="#0f0"/><rect x="6" y="1" width="1" height="1" fill="#008000"/><rect x="7" y="1" width="1" height="1" fill="#008000"/><rect x="8" y="1" width="1" height="1" fill="#000080"/><rect x="1" y="2" width="1" height="1" fill="#808080"/><rect x="2" y="2" width="1" height="1" fill="#C0C0C0"/><rect x="3" y="2" width="1" height="1" fill="#0f0"/><rect x="4" y="2" width="1" height="1" fill="#0f0"/><g fill="#008000"><rect x="5" y="2" width="1" height="1"/><rect x="6" y="2" width="1" height="1"/><rect x="7" y="2" width="1" height="1"/></g><rect x="8" y="2" width="1" height="1" fill="#00f"/><rect x="9" y="2" width="1" height="1" fill="#000080"/><rect x="1" y="3" width="1" height="1" fill="#808080"/><rect x="2" y="3" width="1" height="1" fill="#008000"/><rect x="3" y="3" width="1" height="1" fill="#0f0"/><rect x="4" y="3" width="1" height="1" fill="#008000"/><rect x="5" y="3" width="1" height="1" fill="#008000"/><rect x="6" y="3" width="1" height="1" fill="#00f"/><rect x="7" y="3" width="1" height="1" fill="#00f"/><rect x="8" y="3" width="1" height="1" fill="#000080"/><rect x="9" y="3" width="1" height="1"/><rect y="4" width="1" height="1" fill="#808080"/><rect x="1" y="4" width="1" height="1" fill="#00f"/><rect x="2" y="4" width="1" height="1" fill="#00f"/><rect x="3" y="4" width="1" height="1" fill="#008000"/><g fill="#00f"><rect x="4" y="4" width="1" height="1"/><rect x="5" y="4" width="1" height="1"/><rect x="6" y="4" width="1" height="1"/><rect x="7" y="4" width="1" height="1"/></g><rect x="8" y="4" width="1" height="1" fill="#000080"/><g fill="#808080"><rect x="9" y="4" width="1" height="1"/><rect x="10" y="4" width="1" height="1"/><rect x="11" y="4" width="1" height="1"/><rect y="5" width="1" height="1"/></g><g fill="#00f"><rect x="1" y="5" width="1" height="1"/><rect x="2" y="5" width="1" height="1"/><rect x="3" y="5" width="1" height="1"/><rect x="4" y="5" width="1" height="1"/></g><g fill="#808080"><rect x="5" y="5" width="1" height="1"/><rect x="6" y="5" width="1" height="1"/><rect x="7" y="5" width="1" height="1"/></g><rect x="8" y="5" width="1" height="1"/><g fill="#fff"><rect x="9" y="5" width="1" height="1"/><rect x="10" y="5" width="1" height="1"/><rect x="11" y="5" width="1" height="1"/></g><g fill="#808080"><rect x="12" y="5" width="1" height="1"/><rect x="13" y="5" width="1" height="1"/><rect x="14" y="5" width="1" height="1"/><rect y="6" width="1" height="1"/></g><rect x="1" y="6" width="1" height="1" fill="#008000"/><rect x="2" y="6" width="1" height="1" fill="#008000"/><rect x="3" y="6" width="1" height="1" fill="#00f"/><rect x="4" y="6" width="1" height="1" fill="#808080"/><g fill="#fff"><rect x="5" y="6" width="1" height="1"/><rect x="6" y="6" width="1" height="1"/><rect x="7" y="6" width="1" height="1"/></g><rect x="8" y="6" width="1" height="1" fill="#808080"/><g fill="#ff0"><rect x="9" y="6" width="1" height="1"/><rect x="10" y="6" width="1" height="1"/><rect x="11" y="6" width="1" height="1"/><rect x="12" y="6" width="1" height="1"/></g><rect x="13" y="6" width="1" height="1" fill="#C0C0C0"/><rect x="14" y="6" width="1" height="1" fill="#ff0"/><rect x="15" y="6" width="1" height="1"/><rect y="7" width="1" height="1" fill="#008000"/><rect x="1" y="7" width="1" height="1" fill="#0f0"/><rect x="2" y="7" width="1" height="1" fill="#0f0"/><rect x="3" y="7" width="1" height="1" fill="#808080"/><rect x="4" y="7" width="1" height="1" fill="#ff0"/><rect x="5" y="7" width="1" height="1" fill="#C0C0C0"/><rect x="6" y="7" width="1" height="1" fill="#ff0"/><rect x="7" y="7" width="1" height="1" fill="#C0C0C0"/><rect x="8" y="7" width="1" height="1" fill="#ff0"/><g fill="#808080"><rect x="9" y="7" width="1" height="1"/><rect x="10" y="7" width="1" height="1"/><rect x="11" y="7" width="1" height="1"/></g><rect x="12" y="7" width="1" height="1" fill="#C0C0C0"/><rect x="13" y="7" width="1" height="1" fill="#ff0"/><rect x="14" y="7" width="1" height="1" fill="#C0C0C0"/><rect x="15" y="7" width="1" height="1"/><rect x="1" y="8" width="1" height="1" fill="#008000"/><rect x="2" y="8" width="1" height="1" fill="#0f0"/><rect x="3" y="8" width="1" height="1" fill="#808080"/><g fill="#fff"><rect x="4" y="8" width="1" height="1"/><rect x="5" y="8" width="1" height="1"/><rect x="6" y="8" width="1" height="1"/><rect x="7" y="8" width="1" height="1"/><rect x="8" y="8" width="1" height="1"/><rect x="9" y="8" width="1" height="1"/><rect x="10" y="8" width="1" height="1"/><rect x="11" y="8" width="1" height="1"/></g><rect x="12" y="8" width="1" height="1"/><rect x="13" y="8" width="1" height="1" fill="#C0C0C0"/><rect x="14" y="8" width="1" height="1" fill="#ff0"/><rect x="15" y="8" width="1" height="1"/><rect x="1" y="9" width="1" height="1" fill="#008000"/><rect x="2" y="9" width="1" height="1" fill="#008000"/><rect x="3" y="9" width="1" height="1" fill="#808080"/><rect x="4" y="9" width="1" height="1" fill="#fff"/><rect x="5" y="9" width="1" height="1" fill="#ff0"/><rect x="6" y="9" width="1" height="1" fill="#C0C0C0"/><rect x="7" y="9" width="1" height="1" fill="#ff0"/><rect x="8" y="9" width="1" height="1" fill="#C0C0C0"/><rect x="9" y="9" width="1" height="1" fill="#ff0"/><rect x="10" y="9" width="1" height="1" fill="#C0C0C0"/><rect x="11" y="9" width="1" height="1" fill="#ff0"/><rect x="12" y="9" width="1" height="1"/><rect x="13" y="9" width="1" height="1" fill="#ff0"/><rect x="14" y="9" width="1" height="1" fill="#C0C0C0"/><rect x="15" y="9" width="1" height="1"/><rect x="2" y="10" width="1" height="1" fill="#008000"/><rect x="3" y="10" width="1" height="1" fill="#808080"/><rect x="4" y="10" width="1" height="1" fill="#fff"/><rect x="5" y="10" width="1" height="1" fill="#C0C0C0"/><rect x="6" y="10" width="1" height="1" fill="#ff0"/><rect x="7" y="10" width="1" height="1" fill="#C0C0C0"/><rect x="8" y="10" width="1" height="1" fill="#ff0"/><rect x="9" y="10" width="1" height="1" fill="#C0C0C0"/><rect x="10" y="10" width="1" height="1" fill="#ff0"/><rect x="11" y="10" width="1" height="1" fill="#C0C0C0"/><g><rect x="12" y="10" width="1" height="1"/><rect x="13" y="10" width="1" height="1"/><rect x="14" y="10" width="1" height="1"/><rect x="15" y="10" width="1" height="1"/></g><rect x="3" y="11" width="1" height="1" fill="#808080"/><rect x="4" y="11" width="1" height="1" fill="#fff"/><rect x="5" y="11" width="1" height="1" fill="#ff0"/><rect x="6" y="11" width="1" height="1" fill="#C0C0C0"/><rect x="7" y="11" width="1" height="1" fill="#ff0"/><rect x="8" y="11" width="1" height="1" fill="#C0C0C0"/><rect x="9" y="11" width="1" height="1" fill="#ff0"/><rect x="10" y="11" width="1" height="1" fill="#C0C0C0"/><rect x="11" y="11" width="1" height="1" fill="#ff0"/><rect x="12" y="11" width="1" height="1"/><g fill="#808080"><rect x="13" y="11" width="1" height="1"/><rect x="3" y="12" width="1" height="1"/><rect x="4" y="12" width="1" height="1"/><rect x="5" y="12" width="1" height="1"/><rect x="6" y="12" width="1" height="1"/><rect x="7" y="12" width="1" height="1"/><rect x="8" y="12" width="1" height="1"/><rect x="9" y="12" width="1" height="1"/><rect x="10" y="12" width="1" height="1"/><rect x="11" y="12" width="1" height="1"/></g><g><rect x="12" y="12" width="1" height="1"/><rect x="13" y="12" width="1" height="1"/><rect x="14" y="12" width="1" height="1"/><rect x="15" y="12" width="1" height="1"/><rect x="4" y="13" width="1" height="1"/><rect x="5" y="13" width="1" height="1"/><rect x="6" y="13" width="1" height="1"/><rect x="7" y="13" width="1" height="1"/><rect x="8" y="13" width="1" height="1"/><rect x="9" y="13" width="1" height="1"/><rect x="10" y="13" width="1" height="1"/><rect x="11" y="13" width="1" height="1"/><rect x="12" y="13" width="1" height="1"/></g><rect x="7" y="14" width="1" height="1" fill="#C0C0C0"/><rect x="8" y="14" width="1" height="1" fill="#808080"/><g><rect x="3" y="15" width="1" height="1"/><rect x="4" y="15" width="1" height="1"/><rect x="5" y="15" width="1" height="1"/><rect x="6" y="15" width="1" height="1"/><rect x="7" y="15" width="1" height="1"/><rect x="8" y="15" width="1" height="1"/><rect x="9" y="15" width="1" height="1"/><rect x="10" y="15" width="1" height="1"/><rect x="11" y="15" width="1" height="1"/><rect x="12" y="15" width="1" height="1"/></g></svg>
