<?xml version="1.0" encoding="UTF-8"?>
<svg width="32" height="32" version="1.1" viewBox="0 0 32 32" xmlns="http://www.w3.org/2000/svg"><title>Phone Pole Icon</title><g stroke-miterlimit="0" stroke-width="0"><path d="m0 17h32v15h-32z" fill="#008000" style="paint-order:markers fill stroke"/><path d="m22 17h9v5h-9zm-21-16h30v16h-30z" style="paint-order:markers fill stroke"/><path d="m30 22h1v6h-1zm-2-1h2v6h-2zm-2-1h2v6h-2zm-2-1h2v6h-2zm-2-1h2v6h-2zm-2-1h2v6h-2zm-2-1h2v6h-2zm-1-9h2v1h-2zm-2-1h5v1h-5zm-2-1h7v1h-7zm9 3h1v1h-1zm-2-3h3v3h-3zm-9-1h12v1h-12zm15 6h2v1h-2zm-1-1h3v1h-3zm-2-3h5v3h-5zm5 0h2v6h-2zm2 0h1v7h-1zm-10 3h2v1h-2zm-11-6h14v1h-14zm-2-1h16v1h-16zm-2-1h18v1h-18zm0-1h18v1h-18zm22 5h1v1h-1zm-4 0h1v1h-1zm0-5h1v1h-1zm4 0h1v1h-1zm4 0h1v1h-1zm0 5h1v23h-1zm-1 9h1v7h-1zm-2-1h2v7h-2zm-2-1h2v7h-2zm-2 5h2v1h-2zm-2-6h4v6h-4zm-2 1h2v4h-2zm-2 1h2v2h-2zm-1-4h2v2h-2zm-1 2h2v1h-2zm-1-3h2v3h-2zm-1 3h2v2h-2zm-2 2h2v1h-2zm1-6h2v4h-2zm-1 4h2v1h-2zm-1-5h2v5h-2zm-2-1h2v7h-2zm-2-1h2v7h-2zm-2-1h2v7h-2zm9 16h1v1h-1zm0-4h1v1h-1zm-2 1h3v3h-3zm-2 1h2v1h-2zm0-4h1v2h-1zm-3-1h2v1h-2zm-1 1h4v3h-4zm-1-2h2v2h-2zm-1 2h2v2h-2zm-1-3h2v3h-2zm-1 3h2v1h-2zm-1-4h2v4h-2zm-1-1h1v5h-1zm3-6h2v7h-2zm0-2h2v1h-2zm-3 0h3v8h-3z" fill="#808080" style="paint-order:markers fill stroke"/><path d="m30 28h2v4h-2zm-2-1h2v4h-2zm-2-1h2v4h-2zm-2-1h2v4h-2zm-2-1h2v4h-2zm-2-1h2v4h-2zm-2-1h2v4h-2zm-4-2h1v4h-1zm-2-1h2v4h-2zm-2-1h2v4h-2zm-2 0h2v3h-2zm-2-2h2v4h-2zm-2-1h2v4h-2zm-2-1h2v4h-2zm-2-1h2v4h-2z" fill="#c0c0c0" style="paint-order:markers fill stroke"/><path d="m24 9h1v1h-1zm-2 1h2v1h-2zm-2 0h2v2h-2zm-2 1h2v2h-2zm-2 1h2v2h-2zm-2 2h2v1h-2zm-2 0h2v2h-2zm-2 1h2v2h-2zm-2 1h2v2h-2zm7-1h3v17h-3z" fill="#800000" style="paint-order:markers fill stroke"/><path d="m0 18h1v1h-1z" fill="#f0f0f0" style="paint-order:markers fill stroke"/><path d="m28 0h3v1h-3zm3 1h1v4h-1zm-1 4h1v1h-1zm-2-2h2v3h-2zm-1-2h1v4h-1zm-3-1h3v1h-3zm2 5h1v1h-1zm-2-2h2v3h-2zm-1-2h1v4h-1z" style="paint-order:markers fill stroke"/><path d="m30 3h1v2h-1zm-2-2h3v2h-3zm-2 2h1v2h-1zm-2-2h3v2h-3z" fill="#fff" style="paint-order:markers fill stroke"/></g></svg>
