<?xml version="1.0" encoding="UTF-8"?>
<svg width="16" height="16" version="1.1" xmlns="http://www.w3.org/2000/svg"><rect x="5" width="1" height="1" fill="#808080" opacity=".12549"/><rect x="6" width="1" height="1" fill="#515155" opacity=".75294"/><rect x="7" width="1" height="1" fill="#41415B" opacity=".24706"/><rect x="8" width="1" height="1" opacity=".015686"/><rect x="5" y="1" width="1" height="1" fill="#7C7C7C" opacity=".25882"/><rect x="6" y="1" width="1" height="1" fill="#767679"/><rect x="7" y="1" width="1" height="1" fill="#484865" opacity=".66667"/><rect x="8" y="1" width="1" height="1" opacity=".18039"/><rect x="9" y="1" width="1" height="1" opacity=".015686"/><rect x="5" y="2" width="1" height="1" fill="#5C5C5C" opacity=".45098"/><rect x="6" y="2" width="1" height="1" fill="#2D2D33"/><rect x="7" y="2" width="1" height="1" fill="#393963" opacity=".90196"/><rect x="8" y="2" width="1" height="1" fill="#191919" opacity=".5098"/><rect x="9" y="2" width="1" height="1" fill="#2B2B2B" opacity=".29804"/><rect x="10" y="2" width="1" height="1" fill="#2C2C2C" opacity=".1451"/><rect x="11" y="2" width="1" height="1" opacity=".011765"/><rect x="5" y="3" width="1" height="1" fill="#ABABAB" opacity=".76078"/><rect x="6" y="3" width="1" height="1" fill="#AFAFAF"/><rect x="7" y="3" width="1" height="1" fill="#676767"/><rect x="8" y="3" width="1" height="1" fill="#7F7F7F"/><rect x="9" y="3" width="1" height="1" fill="#8F8F8F"/><rect x="10" y="3" width="1" height="1" fill="#686868" opacity=".80392"/><rect x="11" y="3" width="1" height="1" opacity=".14118"/><rect x="12" y="3" width="1" height="1" opacity=".011765"/><rect x="5" y="4" width="1" height="1" fill="#B8B8B8" opacity=".76863"/><rect x="6" y="4" width="1" height="1" fill="#C0C0C0"/><rect x="7" y="4" width="1" height="1" fill="#8B8B8B"/><rect x="8" y="4" width="1" height="1" fill="#8B8B8B"/><rect x="9" y="4" width="1" height="1" fill="#898989"/><rect x="10" y="4" width="1" height="1" fill="#5A5A5A" opacity=".91372"/><rect x="11" y="4" width="1" height="1" opacity=".4549"/><rect x="12" y="4" width="1" height="1" opacity=".070588"/><rect x="5" y="5" width="1" height="1" fill="#CECECE" opacity=".76863"/><rect x="6" y="5" width="1" height="1" fill="#CFCFCF"/><rect x="7" y="5" width="1" height="1" fill="#70AB63"/><rect x="8" y="5" width="1" height="1" fill="#66BB48"/><rect x="9" y="5" width="1" height="1" fill="#5DAF3C"/><rect x="10" y="5" width="1" height="1" fill="#44593A" opacity=".92941"/><rect x="11" y="5" width="1" height="1" opacity=".51372"/><rect x="12" y="5" width="1" height="1" opacity=".070588"/><rect x="5" y="6" width="1" height="1" fill="#C8C8C8" opacity=".76863"/><rect x="6" y="6" width="1" height="1" fill="#C9C9C9"/><rect x="7" y="6" width="1" height="1" fill="#96E271"/><rect x="8" y="6" width="1" height="1" fill="#80E64D"/><rect x="9" y="6" width="1" height="1" fill="#65CD34"/><rect x="10" y="6" width="1" height="1" fill="#39552C" opacity=".92941"/><rect x="11" y="6" width="1" height="1" opacity=".51372"/><rect x="12" y="6" width="1" height="1" opacity=".070588"/><rect x="5" y="7" width="1" height="1" fill="#C3C3C3" opacity=".76863"/><rect x="6" y="7" width="1" height="1" fill="#C3C3C3"/><rect x="7" y="7" width="1" height="1" fill="#8AD764"/><rect x="8" y="7" width="1" height="1" fill="#6ED43B"/><rect x="9" y="7" width="1" height="1" fill="#7AE047"/><rect x="10" y="7" width="1" height="1" fill="#415C33" opacity=".92941"/><rect x="11" y="7" width="1" height="1" opacity=".51372"/><rect x="12" y="7" width="1" height="1" opacity=".070588"/><rect x="5" y="8" width="1" height="1" fill="#BEBEBE" opacity=".76863"/><rect x="6" y="8" width="1" height="1" fill="#BEBEBE"/><rect x="7" y="8" width="1" height="1" fill="#7DCA57"/><rect x="8" y="8" width="1" height="1" fill="#6EC741"/><rect x="9" y="8" width="1" height="1" fill="#78C552"/><rect x="10" y="8" width="1" height="1" fill="#4E5B48" opacity=".92941"/><rect x="11" y="8" width="1" height="1" opacity=".51372"/><rect x="12" y="8" width="1" height="1" opacity=".070588"/><rect x="5" y="9" width="1" height="1" fill="#8B8B8B" opacity=".76863"/><rect x="6" y="9" width="1" height="1" fill="#B8B8B8"/><rect x="7" y="9" width="1" height="1" fill="#787878"/><rect x="8" y="9" width="1" height="1" fill="#5E5E5E"/><rect x="9" y="9" width="1" height="1" fill="#4D4D4D"/><rect x="10" y="9" width="1" height="1" fill="#56565A" opacity=".92941"/><rect x="11" y="9" width="1" height="1" opacity=".51372"/><rect x="12" y="9" width="1" height="1" opacity=".070588"/><rect x="5" y="10" width="1" height="1" fill="#878787" opacity=".76863"/><rect x="6" y="10" width="1" height="1" fill="#B3B3B3"/><rect x="7" y="10" width="1" height="1" fill="#868686"/><rect x="8" y="10" width="1" height="1" fill="#4B4B4B"/><rect x="9" y="10" width="1" height="1" fill="#575758"/><rect x="10" y="10" width="1" height="1" fill="#55555B" opacity=".92941"/><rect x="11" y="10" width="1" height="1" opacity=".51372"/><rect x="12" y="10" width="1" height="1" opacity=".070588"/><rect x="5" y="11" width="1" height="1" fill="#838383" opacity=".76863"/><rect x="6" y="11" width="1" height="1" fill="#ADADAD"/><rect x="7" y="11" width="1" height="1" fill="#737373"/><rect x="8" y="11" width="1" height="1" fill="#565656"/><rect x="9" y="11" width="1" height="1" fill="#4D4D4D"/><rect x="10" y="11" width="1" height="1" fill="#54545D" opacity=".92941"/><rect x="11" y="11" width="1" height="1" opacity=".51372"/><rect x="12" y="11" width="1" height="1" opacity=".070588"/><rect x="5" y="12" width="1" height="1" fill="#7F7F7F" opacity=".76863"/><rect x="6" y="12" width="1" height="1" fill="#A7A7A7"/><rect x="7" y="12" width="1" height="1" fill="#717174"/><rect x="8" y="12" width="1" height="1" fill="#4B4B4B"/><rect x="9" y="12" width="1" height="1" fill="#575758"/><rect x="10" y="12" width="1" height="1" fill="#53535F" opacity=".92941"/><rect x="11" y="12" width="1" height="1" opacity=".51372"/><rect x="12" y="12" width="1" height="1" opacity=".070588"/><rect x="5" y="13" width="1" height="1" fill="#898989" opacity=".65098"/><rect x="6" y="13" width="1" height="1" fill="#A1A1A1"/><rect x="7" y="13" width="1" height="1" fill="#A2A2B3"/><rect x="8" y="13" width="1" height="1" fill="#A0A0B9"/><rect x="9" y="13" width="1" height="1" fill="#BBBBE2"/><rect x="10" y="13" width="1" height="1" fill="#717189" opacity=".92941"/><rect x="11" y="13" width="1" height="1" opacity=".51372"/><rect x="12" y="13" width="1" height="1" opacity=".070588"/><rect x="5" y="14" width="1" height="1" fill="#555" opacity=".35294"/><rect x="6" y="14" width="1" height="1" fill="#717171" opacity=".89412"/><rect x="7" y="14" width="1" height="1" fill="#818192" opacity=".96078"/><rect x="8" y="14" width="1" height="1" fill="#5B5B69" opacity=".91765"/><rect x="9" y="14" width="1" height="1" fill="#26262A" opacity=".84314"/><rect x="10" y="14" width="1" height="1" fill="#050505" opacity=".69412"/><g><rect x="11" y="14" width="1" height="1" opacity=".45098"/><rect x="12" y="14" width="1" height="1" opacity=".070588"/><rect x="5" y="15" width="1" height="1" opacity=".027451"/><rect x="6" y="15" width="1" height="1" opacity=".28235"/><rect x="7" y="15" width="1" height="1" opacity=".58431"/><rect x="8" y="15" width="1" height="1" opacity=".64314"/><rect x="9" y="15" width="1" height="1" opacity=".53726"/><rect x="10" y="15" width="1" height="1" opacity=".36863"/><rect x="11" y="15" width="1" height="1" opacity=".14118"/><rect x="12" y="15" width="1" height="1" opacity=".003922"/></g></svg>
