<?xml version="1.0" encoding="UTF-8" standalone="no"?>
<!-- Created with Inkscape (http://www.inkscape.org/) -->

<svg
   width="32"
   height="32"
   viewBox="0 0 32 32.000001"
   version="1.1"
   id="svg1"
   inkscape:version="1.3 (0e150ed6c4, 2023-07-21)"
   xml:space="preserve"
   sodipodi:docname="PhonePole.svg"
   xmlns:inkscape="http://www.inkscape.org/namespaces/inkscape"
   xmlns:sodipodi="http://sodipodi.sourceforge.net/DTD/sodipodi-0.dtd"
   xmlns="http://www.w3.org/2000/svg"
   xmlns:svg="http://www.w3.org/2000/svg"
   xmlns:rdf="http://www.w3.org/1999/02/22-rdf-syntax-ns#"
   xmlns:cc="http://creativecommons.org/ns#"
   xmlns:dc="http://purl.org/dc/elements/1.1/"><title
     id="title7304">Phone Pole Icon?</title><sodipodi:namedview
     id="namedview1"
     pagecolor="#505050"
     bordercolor="#ffffff"
     borderopacity="1"
     inkscape:showpageshadow="0"
     inkscape:pageopacity="0"
     inkscape:pagecheckerboard="1"
     inkscape:deskcolor="#505050"
     inkscape:document-units="px"
     showgrid="true"
     inkscape:zoom="11.313709"
     inkscape:cx="11.75565"
     inkscape:cy="13.965359"
     inkscape:window-width="1287"
     inkscape:window-height="747"
     inkscape:window-x="-4"
     inkscape:window-y="-4"
     inkscape:window-maximized="1"
     inkscape:current-layer="layer1"><inkscape:grid
       id="grid1"
       units="px"
       originx="0"
       originy="1.6406248e-07"
       spacingx="1"
       spacingy="1"
       empcolor="#0099e5"
       empopacity="0.30196078"
       color="#0099e5"
       opacity="0.05098039"
       empspacing="1"
       dotted="false"
       gridanglex="30"
       gridanglez="30"
       visible="true"
       snapvisiblegridlinesonly="false" /></sodipodi:namedview><defs
     id="defs1" /><g
     inkscape:label="Layer 1"
     inkscape:groupmode="layer"
     id="layer1"><path
       id="rect7291"
       style="display:inline;fill:#008000;stroke-width:0;stroke-linecap:square;stroke-linejoin:round;stroke-miterlimit:0;paint-order:markers fill stroke"
       inkscape:label="Grass"
       d="M 0,17 H 32 V 31.999997 H 0 Z" /><path
       id="rect7304"
       style="stroke-width:0;stroke-linecap:square;stroke-linejoin:round;stroke-miterlimit:0;paint-order:markers fill stroke"
       d="m 22,17 h 9 v 4.999999 H 22 Z M 1,1 H 31 V 16.999999 H 1 Z"
       inkscape:label="PhoneCord" /><path
       id="rect7262"
       style="fill:#808080;fill-opacity:1;stroke-width:0;stroke-linecap:square;stroke-linejoin:round;stroke-miterlimit:0;paint-order:markers fill stroke"
       d="m 30,21.999999 h 1 v 6 h -1 z m -2,-1 h 2 v 6 h -2 z m -2,-1 h 2 v 6 h -2 z m -2,-1 h 2 v 6 h -2 z m -2,-1 h 2 v 6 h -2 z m -2,-1 h 2 v 6 h -2 z m -2,-1.000001 h 2 v 6 H 18 Z M 17,6.9999994 h 2 v 1 H 17 Z M 15,5.9999999 h 5 v 0.9999999 h -5 z m -2,-1 h 7 v 0.9999999 h -7 z m 9,2.9999995 h 1 v 1 H 22 Z M 20,4.9999999 h 3 v 3 H 20 Z M 11,3.9999997 H 23 V 4.9999996 H 11 Z m 15,6.0000002 h 2 v 0.9999991 h -2 z m -1,-1 h 3 v 0.9999999 h -3 z m -2,-3 h 5 v 3 h -5 z m 5,0 h 2 v 5.9999991 h -2 z m 2,0 h 1 v 6.9999991 h -1 z m -10,3 h 2 v 0.9999999 h -2 z m -11,-6 H 23 V 3.9999998 H 9 Z M 7,1.9999998 H 23 V 2.9999997 H 7 Z M 5,0.99999977 H 23 V 1.9999998 H 5 Z M 5,-1.6406248e-7 H 23 V 0.99999977 H 5 Z M 27,4.9999999 h 1 v 0.9999999 h -1 z m -4,0 h 1 V 5.9999998 H 23 Z M 23,-1.6406248e-7 h 1 V 0.99999977 h -1 z m 4,0 h 1 V 0.99999977 h -1 z m 4,0 h 1 V 0.99999977 H 31 Z M 31,4.9999999 h 1 V 27.999999 h -1 z m -1,8.9999981 h 1 v 7 h -1 z m -2,-1 h 2 v 7 h -2 z m -2,-0.999999 h 2 v 7 h -2 z m -2,5 h 2 v 1 h -2 z m -2,-6 h 4 v 6 h -4 z m -2,1 h 2 v 4 h -2 z m -2,0.999999 h 2 v 2 H 18 Z M 17,8.9999999 h 2 v 1.9999991 h -2 z m -1,1.9999991 h 2 v 1 H 16 Z M 15,7.9999994 h 2 v 2.9999996 h -2 z m -1,2.9999996 h 2 v 2 h -2 z m -2,1.999999 h 2 v 1 h -2 z m 1,-5.9999986 h 2 v 3.9999986 h -2 z m -1,3.9999996 h 2 v 1 H 12 Z M 11,5.9999999 h 2 v 4.9999991 h -2 z m -2,-1 h 2 V 11.999999 H 9 Z M 7,3.9999997 H 9 V 10.999998 H 7 Z M 5,2.9999999 H 7 V 9.9999994 H 5 Z m 9,15.9999991 h 1 v 1 h -1 z m 0,-4.000001 h 1 v 1 h -1 z m -2,1 h 3 v 3 h -3 z m -2,1.000001 h 2 v 1 h -2 z m 0,-4.000001 h 1 v 2 H 10 Z M 7,11.999999 h 2 v 1 H 7 Z m -1,0.999999 h 4 v 3 H 6 Z M 5,10.999999 h 2 v 2 H 5 Z m -1,1.999999 h 2 v 2 H 4 Z M 3,9.9999999 H 5 V 12.999999 H 3 Z M 2,12.999998 h 2 v 1 H 2 Z M 1,8.9999999 H 3 V 12.999999 H 1 Z M 0,7.9999994 H 1 V 12.999999 H 0 Z M 3,1.9999997 H 5 V 8.9999992 H 3 Z M 3,-1.6406248e-7 H 5 V 0.99999977 H 3 Z m -3,0 H 3 V 7.9999994 H 0 Z"
       inkscape:label="Road" /><path
       id="rect7290"
       style="fill:#c0c0c0;stroke-width:0;stroke-linecap:square;stroke-linejoin:round;stroke-miterlimit:0;paint-order:markers fill stroke"
       d="m 30,27.999998 h 2 v 4 h -2 z m -2,-1 h 2 v 4 h -2 z m -2,-1 h 2 v 4 h -2 z m -2,-1 h 2 v 4 H 24 Z M 22,24 h 2 v 4 h -2 z m -2,-1 h 2 v 4 h -2 z m -2,-1 h 2 v 4 h -2 z m -4,-2 h 1 v 4 h -1 z m -2,-1 h 2 v 4 h -2 z m -2,-1 h 2 v 4 h -2 z m -2,0 h 2 v 3 H 8 Z M 6,15.999999 h 2 v 4 H 6 Z m -2,-1 h 2 v 4 H 4 Z m -2,-1 h 2 v 4 H 2 Z m -2,-1 h 2 v 4 H 0 Z"
       inkscape:label="Sidewalk" /><path
       id="rect7301"
       style="fill:#800000;stroke-width:0;stroke-linecap:square;stroke-linejoin:round;stroke-miterlimit:0;paint-order:markers fill stroke"
       d="m 24,9 h 1 v 0.9999999 h -1 z m -2,1 h 2 v 1 h -2 z m -2,0 h 2 v 2 h -2 z m -2,1 h 2 v 2 h -2 z m -2,1 h 2 v 2 h -2 z m -2,1.999999 h 2 v 1 h -2 z m -2,0 h 2 v 2 h -2 z m -2,1 h 2 v 2 h -2 z m -2,1 h 2 v 2 H 8 Z m 7,-1 h 3 v 17 h -3 z"
       inkscape:label="PhonePole" /><path
       id="rect7302"
       style="fill:#f0f0f0;stroke-width:0;stroke-linecap:square;stroke-linejoin:round;stroke-miterlimit:0;paint-order:markers fill stroke"
       inkscape:label="OddWhitePixel"
       d="m 0,18 h 1 v 1 H 0 Z" /><g
       id="g7275"
       inkscape:label="Eyes"><path
         id="rect7271"
         style="stroke-width:0;stroke-linecap:square;stroke-linejoin:round;stroke-miterlimit:0;paint-order:markers fill stroke"
         d="m 28,0 h 3 v 0.99999994 h -3 z m 3,0.99999994 h 1 V 4.9999997 H 31 Z M 30,5 h 1 V 5.9999999 H 30 Z M 28,3 h 2 V 6 H 28 Z M 27,0.99999994 h 1 V 4.9999997 H 27 Z M 24,0 h 3 v 0.99999994 h -3 z m 2,5 h 1 V 5.9999999 H 26 Z M 24,3 h 2 V 6 H 24 Z M 23,0.99999994 h 1 V 4.9999997 h -1 z"
         inkscape:label="EyeOutline" /><path
         id="rect7275"
         style="fill:#ffffff;stroke-width:0;stroke-linecap:square;stroke-linejoin:round;stroke-miterlimit:0;paint-order:markers fill stroke"
         d="m 30,3 h 1 V 4.9999999 H 30 Z M 28,0.99999994 h 3 V 2.9999997 H 28 Z M 26,3 h 1 V 4.9999999 H 26 Z M 24,0.99999994 h 3 V 2.9999998 h -3 z"
         inkscape:label="EyeWhite" /></g></g><metadata
     id="metadata7304"><rdf:RDF><cc:Work
         rdf:about=""><dc:title>Phone Pole Icon?</dc:title></cc:Work></rdf:RDF></metadata></svg>
