<?xml version="1.0" encoding="UTF-8" ?>
<svg version="1.1" width="16" height="16" xmlns="http://www.w3.org/2000/svg">
<rect x="5" y="0" width="1" height="1" fill="#808080" opacity="0.125490" />
<rect x="6" y="0" width="1" height="1" fill="#515155" opacity="0.752941" />
<rect x="7" y="0" width="1" height="1" fill="#41415B" opacity="0.247059" />
<rect x="8" y="0" width="1" height="1" fill="#000000" opacity="0.015686" />
<rect x="5" y="1" width="1" height="1" fill="#7C7C7C" opacity="0.258824" />
<rect x="6" y="1" width="1" height="1" fill="#767679" />
<rect x="7" y="1" width="1" height="1" fill="#484865" opacity="0.666667" />
<rect x="8" y="1" width="1" height="1" fill="#000000" opacity="0.180392" />
<rect x="9" y="1" width="1" height="1" fill="#000000" opacity="0.015686" />
<rect x="5" y="2" width="1" height="1" fill="#5C5C5C" opacity="0.450980" />
<rect x="6" y="2" width="1" height="1" fill="#2D2D33" />
<rect x="7" y="2" width="1" height="1" fill="#393963" opacity="0.901961" />
<rect x="8" y="2" width="1" height="1" fill="#191919" opacity="0.509804" />
<rect x="9" y="2" width="1" height="1" fill="#2B2B2B" opacity="0.298039" />
<rect x="10" y="2" width="1" height="1" fill="#2C2C2C" opacity="0.145098" />
<rect x="11" y="2" width="1" height="1" fill="#000000" opacity="0.011765" />
<rect x="5" y="3" width="1" height="1" fill="#ABABAB" opacity="0.760784" />
<rect x="6" y="3" width="1" height="1" fill="#AFAFAF" />
<rect x="7" y="3" width="1" height="1" fill="#676767" />
<rect x="8" y="3" width="1" height="1" fill="#7F7F7F" />
<rect x="9" y="3" width="1" height="1" fill="#8F8F8F" />
<rect x="10" y="3" width="1" height="1" fill="#686868" opacity="0.803922" />
<rect x="11" y="3" width="1" height="1" fill="#000000" opacity="0.141176" />
<rect x="12" y="3" width="1" height="1" fill="#000000" opacity="0.011765" />
<rect x="5" y="4" width="1" height="1" fill="#B8B8B8" opacity="0.768627" />
<rect x="6" y="4" width="1" height="1" fill="#C0C0C0" />
<rect x="7" y="4" width="1" height="1" fill="#8B8B8B" />
<rect x="8" y="4" width="1" height="1" fill="#8B8B8B" />
<rect x="9" y="4" width="1" height="1" fill="#898989" />
<rect x="10" y="4" width="1" height="1" fill="#5A5A5A" opacity="0.913725" />
<rect x="11" y="4" width="1" height="1" fill="#000000" opacity="0.454902" />
<rect x="12" y="4" width="1" height="1" fill="#000000" opacity="0.070588" />
<rect x="5" y="5" width="1" height="1" fill="#CECECE" opacity="0.768627" />
<rect x="6" y="5" width="1" height="1" fill="#CFCFCF" />
<rect x="7" y="5" width="1" height="1" fill="#70AB63" />
<rect x="8" y="5" width="1" height="1" fill="#66BB48" />
<rect x="9" y="5" width="1" height="1" fill="#5DAF3C" />
<rect x="10" y="5" width="1" height="1" fill="#44593A" opacity="0.929412" />
<rect x="11" y="5" width="1" height="1" fill="#000000" opacity="0.513725" />
<rect x="12" y="5" width="1" height="1" fill="#000000" opacity="0.070588" />
<rect x="5" y="6" width="1" height="1" fill="#C8C8C8" opacity="0.768627" />
<rect x="6" y="6" width="1" height="1" fill="#C9C9C9" />
<rect x="7" y="6" width="1" height="1" fill="#96E271" />
<rect x="8" y="6" width="1" height="1" fill="#80E64D" />
<rect x="9" y="6" width="1" height="1" fill="#65CD34" />
<rect x="10" y="6" width="1" height="1" fill="#39552C" opacity="0.929412" />
<rect x="11" y="6" width="1" height="1" fill="#000000" opacity="0.513725" />
<rect x="12" y="6" width="1" height="1" fill="#000000" opacity="0.070588" />
<rect x="5" y="7" width="1" height="1" fill="#C3C3C3" opacity="0.768627" />
<rect x="6" y="7" width="1" height="1" fill="#C3C3C3" />
<rect x="7" y="7" width="1" height="1" fill="#8AD764" />
<rect x="8" y="7" width="1" height="1" fill="#6ED43B" />
<rect x="9" y="7" width="1" height="1" fill="#7AE047" />
<rect x="10" y="7" width="1" height="1" fill="#415C33" opacity="0.929412" />
<rect x="11" y="7" width="1" height="1" fill="#000000" opacity="0.513725" />
<rect x="12" y="7" width="1" height="1" fill="#000000" opacity="0.070588" />
<rect x="5" y="8" width="1" height="1" fill="#BEBEBE" opacity="0.768627" />
<rect x="6" y="8" width="1" height="1" fill="#BEBEBE" />
<rect x="7" y="8" width="1" height="1" fill="#7DCA57" />
<rect x="8" y="8" width="1" height="1" fill="#6EC741" />
<rect x="9" y="8" width="1" height="1" fill="#78C552" />
<rect x="10" y="8" width="1" height="1" fill="#4E5B48" opacity="0.929412" />
<rect x="11" y="8" width="1" height="1" fill="#000000" opacity="0.513725" />
<rect x="12" y="8" width="1" height="1" fill="#000000" opacity="0.070588" />
<rect x="5" y="9" width="1" height="1" fill="#8B8B8B" opacity="0.768627" />
<rect x="6" y="9" width="1" height="1" fill="#B8B8B8" />
<rect x="7" y="9" width="1" height="1" fill="#787878" />
<rect x="8" y="9" width="1" height="1" fill="#5E5E5E" />
<rect x="9" y="9" width="1" height="1" fill="#4D4D4D" />
<rect x="10" y="9" width="1" height="1" fill="#56565A" opacity="0.929412" />
<rect x="11" y="9" width="1" height="1" fill="#000000" opacity="0.513725" />
<rect x="12" y="9" width="1" height="1" fill="#000000" opacity="0.070588" />
<rect x="5" y="10" width="1" height="1" fill="#878787" opacity="0.768627" />
<rect x="6" y="10" width="1" height="1" fill="#B3B3B3" />
<rect x="7" y="10" width="1" height="1" fill="#868686" />
<rect x="8" y="10" width="1" height="1" fill="#4B4B4B" />
<rect x="9" y="10" width="1" height="1" fill="#575758" />
<rect x="10" y="10" width="1" height="1" fill="#55555B" opacity="0.929412" />
<rect x="11" y="10" width="1" height="1" fill="#000000" opacity="0.513725" />
<rect x="12" y="10" width="1" height="1" fill="#000000" opacity="0.070588" />
<rect x="5" y="11" width="1" height="1" fill="#838383" opacity="0.768627" />
<rect x="6" y="11" width="1" height="1" fill="#ADADAD" />
<rect x="7" y="11" width="1" height="1" fill="#737373" />
<rect x="8" y="11" width="1" height="1" fill="#565656" />
<rect x="9" y="11" width="1" height="1" fill="#4D4D4D" />
<rect x="10" y="11" width="1" height="1" fill="#54545D" opacity="0.929412" />
<rect x="11" y="11" width="1" height="1" fill="#000000" opacity="0.513725" />
<rect x="12" y="11" width="1" height="1" fill="#000000" opacity="0.070588" />
<rect x="5" y="12" width="1" height="1" fill="#7F7F7F" opacity="0.768627" />
<rect x="6" y="12" width="1" height="1" fill="#A7A7A7" />
<rect x="7" y="12" width="1" height="1" fill="#717174" />
<rect x="8" y="12" width="1" height="1" fill="#4B4B4B" />
<rect x="9" y="12" width="1" height="1" fill="#575758" />
<rect x="10" y="12" width="1" height="1" fill="#53535F" opacity="0.929412" />
<rect x="11" y="12" width="1" height="1" fill="#000000" opacity="0.513725" />
<rect x="12" y="12" width="1" height="1" fill="#000000" opacity="0.070588" />
<rect x="5" y="13" width="1" height="1" fill="#898989" opacity="0.650980" />
<rect x="6" y="13" width="1" height="1" fill="#A1A1A1" />
<rect x="7" y="13" width="1" height="1" fill="#A2A2B3" />
<rect x="8" y="13" width="1" height="1" fill="#A0A0B9" />
<rect x="9" y="13" width="1" height="1" fill="#BBBBE2" />
<rect x="10" y="13" width="1" height="1" fill="#717189" opacity="0.929412" />
<rect x="11" y="13" width="1" height="1" fill="#000000" opacity="0.513725" />
<rect x="12" y="13" width="1" height="1" fill="#000000" opacity="0.070588" />
<rect x="5" y="14" width="1" height="1" fill="#555555" opacity="0.352941" />
<rect x="6" y="14" width="1" height="1" fill="#717171" opacity="0.894118" />
<rect x="7" y="14" width="1" height="1" fill="#818192" opacity="0.960784" />
<rect x="8" y="14" width="1" height="1" fill="#5B5B69" opacity="0.917647" />
<rect x="9" y="14" width="1" height="1" fill="#26262A" opacity="0.843137" />
<rect x="10" y="14" width="1" height="1" fill="#050505" opacity="0.694118" />
<rect x="11" y="14" width="1" height="1" fill="#000000" opacity="0.450980" />
<rect x="12" y="14" width="1" height="1" fill="#000000" opacity="0.070588" />
<rect x="5" y="15" width="1" height="1" fill="#000000" opacity="0.027451" />
<rect x="6" y="15" width="1" height="1" fill="#000000" opacity="0.282353" />
<rect x="7" y="15" width="1" height="1" fill="#000000" opacity="0.584314" />
<rect x="8" y="15" width="1" height="1" fill="#000000" opacity="0.643137" />
<rect x="9" y="15" width="1" height="1" fill="#000000" opacity="0.537255" />
<rect x="10" y="15" width="1" height="1" fill="#000000" opacity="0.368627" />
<rect x="11" y="15" width="1" height="1" fill="#000000" opacity="0.141176" />
<rect x="12" y="15" width="1" height="1" fill="#000000" opacity="0.003922" />
</svg>