<?xml version="1.0" encoding="UTF-8"?>
<svg width="16" height="16" version="1.1" xmlns="http://www.w3.org/2000/svg"><g fill="#868686"><rect x="3" width="3" height="1"/><rect x="1" y="1" width="1" height="1"/><rect x="2" y="1" width="1" height="1"/></g><rect x="3" y="1" width="1" height="1" fill="#B2B2B2"/><rect x="4" y="1" width="1" height="1" fill="#C0C0C0"/><rect x="5" y="1" width="1" height="1" fill="#B2B2B2"/><rect x="6" y="1" width="5" height="1" fill="#868686"/><rect y="2" width="1" height="1" fill="#868686"/><rect x="1" y="2" width="1" height="1" fill="#C0C0C0"/><rect x="2" y="2" width="1" height="1" fill="#F8F8F8"/><rect x="3" y="2" width="1" height="1" fill="#EAEAEA"/><rect x="4" y="2" width="2" height="1" fill="#c0c0c0"/><rect x="6" y="2" width="2" height="1" fill="#b2b2b2"/><rect x="8" y="2" width="1" height="1" fill="#777"/><rect x="9" y="2" width="1" height="1" fill="#C0C0C0"/><rect x="10" y="2" width="1" height="1" fill="#B2B2B2"/><rect x="11" y="2" width="1" height="1" fill="#777"/><rect x="12" y="2" width="1" height="1" fill="#868686"/><rect y="3" width="1" height="1" fill="#777"/><rect x="1" y="3" width="1" height="1" fill="#E3E3E3"/><rect x="2" y="3" width="1" height="1" fill="#868686"/><rect x="3" y="3" width="1" height="1" fill="#ccc"/><rect x="4" y="3" width="1" height="1" fill="#F8F8F8"/><rect x="5" y="3" width="1" height="1" fill="#E3E3E3"/><rect x="6" y="3" width="2" height="1" fill="#c0c0c0"/><rect x="8" y="3" width="1" height="1" fill="#B2B2B2"/><rect x="9" y="3" width="1" height="1" fill="#999"/><rect x="10" y="3" width="1" height="1" fill="#868686"/><rect x="11" y="3" width="1" height="1" fill="#C0C0C0"/><rect x="12" y="3" width="1" height="1" fill="#B2B2B2"/><rect x="13" y="3" width="1" height="1" fill="#777"/><rect x="14" y="3" width="1" height="1" fill="#868686"/><g><rect y="4" width="1" height="7" fill="#868686"/><rect x="1" y="4" width="1" height="6" fill="#e3e3e3"/><rect x="2" y="4" width="1" height="5" fill="#303"/></g><rect x="3" y="4" width="1" height="1" fill="#006"/><rect x="4" y="4" width="1" height="1" fill="#868686"/><rect x="5" y="4" width="1" height="1" fill="#ccc"/><rect x="6" y="4" width="1" height="1" fill="#F8F8F8"/><rect x="7" y="4" width="1" height="1" fill="#EAEAEA"/><rect x="8" y="4" width="2" height="1" fill="#c0c0c0"/><rect x="10" y="4" width="1" height="1" fill="#B2B2B2"/><rect x="11" y="4" width="1" height="1" fill="#999"/><rect x="12" y="4" width="1" height="1" fill="#868686"/><rect x="13" y="4" width="1" height="1" fill="#B2B2B2"/><rect x="14" y="4" width="1" height="6" fill="#777"/><rect x="15" y="4" width="1" height="6"/><rect x="3" y="5" width="1" height="4" fill="#33c"/><rect x="4" y="5" width="1" height="1" fill="#339"/><rect x="5" y="5" width="1" height="1" fill="#006"/><rect x="6" y="5" width="1" height="1" fill="#868686"/><rect x="7" y="5" width="1" height="1" fill="#ccc"/><rect x="8" y="5" width="1" height="1" fill="#F8F8F8"/><rect x="9" y="5" width="1" height="1" fill="#E3E3E3"/><rect x="10" y="5" width="1" height="1" fill="#C0C0C0"/><rect x="11" y="5" width="1" height="8" fill="#777"/><rect x="12" y="5" width="1" height="9"/><rect x="13" y="5" width="1" height="5" fill="#999"/><rect x="4" y="6" width="1" height="1" fill="#33f"/><rect x="5" y="6" width="1" height="1" fill="#ff3"/><rect x="6" y="6" width="1" height="1" fill="#339"/><rect x="7" y="6" width="1" height="6" fill="#006"/><rect x="8" y="6" width="1" height="1" fill="#C0C0C0"/><rect x="9" y="6" width="1" height="8" fill="#c0c0c0"/><rect x="10" y="6" width="1" height="8" fill="#999"/><g><rect x="4" y="7" width="1" height="2" fill="#ff3"/><rect x="5" y="7" width="1" height="2" fill="#808000"/><rect x="6" y="7" width="1" height="2" fill="#33c"/></g><rect x="8" y="7" width="1" height="6" fill="#ccc"/><rect x="2" y="9" width="1" height="1"/><rect x="3" y="9" width="1" height="1" fill="#339"/><rect x="4" y="9" width="1" height="1" fill="#33f"/><rect x="5" y="9" width="1" height="1" fill="#ff3"/><rect x="6" y="9" width="1" height="1" fill="#33f"/><rect x="1" y="10" width="1" height="1" fill="#C0C0C0"/><rect x="2" y="10" width="1" height="1" fill="#ccc"/><rect x="3" y="10" width="1" height="2" fill="#c0c0c0"/><rect x="4" y="10" width="2" height="1" fill="#006"/><rect x="6" y="10" width="1" height="1" fill="#33c"/><rect x="13" y="10" width="1" height="1" fill="#777"/><rect x="14" y="10" width="1" height="1"/><rect y="11" width="1" height="1" fill="#5F5F5F"/><rect x="1" y="11" width="1" height="1" fill="#777"/><rect x="2" y="11" width="1" height="1" fill="#999"/><rect x="4" y="11" width="1" height="1" fill="#ccc"/><rect x="5" y="11" width="1" height="2" fill="#c0c0c0"/><rect x="6" y="11" width="1" height="1" fill="#006"/><rect x="13" y="11" width="1" height="1"/><rect x="1" y="12" width="2" height="1" fill="#5f5f5f"/><rect x="3" y="12" width="1" height="1" fill="#777"/><rect x="4" y="12" width="1" height="1" fill="#999"/><rect x="6" y="12" width="1" height="1" fill="#ccc"/><rect x="7" y="12" width="1" height="2" fill="#c0c0c0"/><rect x="3" y="13" width="2" height="1" fill="#5f5f5f"/><rect x="5" y="13" width="1" height="1" fill="#868686"/><rect x="6" y="13" width="1" height="1" fill="#999"/><rect x="8" y="13" width="1" height="1" fill="#C0C0C0"/><rect x="11" y="13" width="1" height="1" fill="#5F5F5F"/><rect x="5" y="14" width="2" height="1" fill="#5f5f5f"/><rect x="7" y="14" width="1" height="1" fill="#868686"/><rect x="8" y="14" width="1" height="1" fill="#999"/><rect x="9" y="14" width="1" height="1" fill="#868686"/><rect x="10" y="14" width="1" height="1"/><rect x="11" y="14" width="1" height="1"/><rect x="7" y="15" width="2" height="1" fill="#5f5f5f"/><rect x="9" y="15" width="1" height="1"/></svg>
