<?xml version="1.0" encoding="UTF-8"?>
<svg width="16" height="16" version="1.1" xmlns="http://www.w3.org/2000/svg"><g><g><rect x="1" y="1" width="5" height="1"/><rect y="2" width="1" height="4"/><rect x="1" y="2" width="10" height="4"/><rect x="11" y="3" width="4" height="4"/></g><rect x="15" y="4" width="1" height="6"/><g><rect x="1" y="6" width="1" height="4"/><rect x="2" y="6" width="5" height="4"/><rect x="7" y="6" width="1" height="3"/></g></g><rect x="10" y="6" width="1" height="1" fill="#808080"/><rect x="8" y="7" width="1" height="1"/><rect x="9" y="7" width="1" height="1" fill="#808080"/><rect x="10" y="7" width="2" height="2" fill="#fff"/><rect x="11" y="7" width="1" height="1" fill="#808080"/><rect x="12" y="7" width="1" height="1"/><rect x="13" y="7" width="1" height="2" fill="#f00"/><rect x="14" y="7" width="1" height="3"/><g fill="#808080"><rect x="8" y="8" width="1" height="1"/><rect x="12" y="8" width="1" height="1"/><rect x="7" y="9" width="1" height="1"/></g><rect x="8" y="9" width="5" height="2" fill="#fff"/><rect x="13" y="9" width="1" height="1" fill="#808080"/><g><rect x="2" y="10" width="1" height="4"/><rect x="3" y="10" width="3" height="4"/><rect x="6" y="10" width="1" height="5.0318" fill="#808080"/><rect x="7" y="10" width="2" height="5" fill="#fff"/><rect x="12" y="10" width="2" height="5" fill="#fff"/><rect x="14" y="10" width="1" height="5" fill="#808080"/></g><rect x="5" y="11" width="1" height="1" fill="#808080"/><rect x="9" y="11" width="3" height="4"/><rect x="15" y="11" width="1" height="1" fill="#808080"/><rect x="10" y="12" width="1" height="3" fill="#ff0"/><rect x="3" y="14" width="3" height="1"/><rect x="6" y="15" width="9" height="1" fill="#808080"/><rect x="9" y="8" width="1" height="1" fill="#fff"/><rect x="8" y="6" width="2" height="1"/></svg>
