<?xml version="1.0" encoding="UTF-8"?>
<svg width="16" height="16" version="1.1" viewBox="0 0 16 16" xmlns="http://www.w3.org/2000/svg"><title>Windowsill Logo</title><path d="m4 7h2v2h-2zm-1 1h1v1h-1zm-3-2h1v2h-1zm2 1h1v2h-1z" fill="#87ffe9" /><path d="m4 10h2v2h-2zm-1 1h1v1h-1zm-1-1h1v2h-1zm-2-1h1v2h-1z" fill="#e98bf9" /><path d="m13 8h-1v3h1zm1 1h-1v3h1z" fill="#ea76f7" /><path d="m9 8h1v3h-1zm-1 1h1v3h-1z" fill="#e98bf9" /><path d="m13 3h-1v3h1zm1 1h-1v3h1z" fill="#00e1fa" /><path d="m9 3h1v3h-1zm-1 1h1v3h-1z" fill="#87ffe9" /><path d="m3 14h1v1h-1zm1-1h2v2h-2zm-2 0h1v2h-1zm8-12h2v12h-2zm-1 5h1v2h-1zm0 5h1v2h-1zm-1-4h1v2h-1zm0 5h1v2h-1zm-1-10h1v12h-1zm-1 1h1v12h-1zm-3 2h1v1h-1zm1-1h2v2h-2zm-2 0h1v2h-1zm13-1h1v12h-1zm-1-1h1v12h-1zm-1 4e-7h1v2h-1zm-1-1h1v2h-1zm1 11h1v2h-1zm-1-1h1v2h-1zm1-4h1v2h-1zm-5-5h1v2h-1zm1-1h1v2h-1zm3 5h1v2h-1zm-12 6h1v2h-1zm0-9h1v2h-1z" fill="#020202" /></svg>
